<?xml version="1.0" encoding="UTF-8"?>
<svg xmlns="http://www.w3.org/2000/svg" xmlns:xlink="http://www.w3.org/1999/xlink" id="Layer_1" data-name="Layer 1" viewBox="0 0 651.14 204.72">
  <defs>
    <style>
      .cls-1 {
        fill: url(#linear-gradient-3);
      }

      .cls-2 {
        fill: url(#linear-gradient-2);
      }

      .cls-3 {
        fill: url(#linear-gradient);
      }

      .cls-4 {
        fill: #1a1a1a;
      }
    </style>
    <linearGradient id="linear-gradient" x1="104.27" y1="-11.5" x2="104.27" y2="183.54" gradientUnits="userSpaceOnUse">
      <stop offset=".64" stop-color="#20c9c4"></stop>
      <stop offset=".78" stop-color="#2f5dff"></stop>
      <stop offset=".94" stop-color="#2c00ee"></stop>
    </linearGradient>
    <linearGradient id="linear-gradient-2" x1="70.01" y1="-11.5" x2="70.01" y2="183.54" gradientUnits="userSpaceOnUse">
      <stop offset=".33" stop-color="#20c9c4"></stop>
      <stop offset=".7" stop-color="#2f5dff"></stop>
      <stop offset="1" stop-color="#2c00ee"></stop>
    </linearGradient>
    <linearGradient id="linear-gradient-3" x1="138.53" y1="-11.5" x2="138.53" y2="183.54" xlink:href="#linear-gradient-2"></linearGradient>
  </defs>
  <path class="cls-4" d="M236.85,72.07c-1.3-.96-2.81-1.69-4.51-2.17-1.67-.47-3.49-.71-5.41-.71h-17.5c-.6,0-1.09.49-1.09,1.09v31.56c0,.6.49,1.09,1.09,1.09h5.56c.6,0,1.09-.49,1.09-1.09v-8.77c0-.6.49-1.09,1.09-1.09h9.76c1.91,0,3.73-.23,5.39-.68,1.7-.46,3.22-1.17,4.52-2.12,1.32-.96,2.35-2.18,3.08-3.62.72-1.43,1.08-3.07,1.08-4.9s-.36-3.52-1.08-4.95c-.73-1.44-1.76-2.66-3.07-3.64ZM231.61,84.43c-1.12.96-2.58,1.42-4.46,1.42h-9.99c-.6,0-1.09-.49-1.09-1.09v-8.22c0-.6.49-1.09,1.09-1.09h9.99c1.89,0,3.35.45,4.47,1.38,1.11.92,1.64,2.17,1.64,3.82s-.54,2.83-1.66,3.78Z"></path>
  <path class="cls-4" d="M277.21,86.31s.03-.02.05-.03c1.07-.74,1.93-1.69,2.55-2.82.62-1.13.93-2.5.93-4.07,0-2.27-.58-4.19-1.71-5.71-1.14-1.52-2.79-2.67-4.91-3.41-2.03-.71-4.46-1.08-7.23-1.08h-18.91c-.6,0-1.09.49-1.09,1.09v31.56c0,.6.49,1.09,1.09,1.09h5.56c.6,0,1.09-.49,1.09-1.09v-10.43c0-.6.49-1.09,1.09-1.09h9.42c2.06,0,3.66.14,4.76.4.91.22,1.52.57,1.85,1.06.38.56.57,1.39.57,2.47v7.59c0,.6.49,1.09,1.09,1.09h5.62c.6,0,1.09-.49,1.09-1.09v-7.74c0-2.07-.47-3.62-1.45-4.74-.4-.46-.87-.86-1.42-1.21-.68-.43-.7-1.39-.04-1.84ZM271.52,82.92c-.99.85-2.55,1.27-4.63,1.27h-11.17c-.6,0-1.09-.49-1.09-1.09v-6.56c0-.6.49-1.09,1.09-1.09h11.17c2.12,0,3.7.37,4.7,1.09.95.68,1.41,1.66,1.41,2.99,0,1.43-.49,2.53-1.49,3.39Z"></path>
  <path class="cls-4" d="M322.71,101.37l-14.98-31.56c-.18-.38-.56-.62-.98-.62h-5.93c-.42,0-.8.24-.98.62l-14.87,31.56c-.34.72.19,1.55.98,1.55h5.91c.43,0,.81-.25.99-.64l3-6.59c.18-.39.56-.64.99-.64h13.92c.43,0,.81.25.99.64l3.01,6.6c.18.39.56.64.99.64h5.97c.8,0,1.33-.83.98-1.55ZM306.93,88.83h-6.27c-.79,0-1.32-.82-.99-1.54l3.13-6.88c.39-.85,1.59-.85,1.98,0l3.14,6.88c.33.72-.2,1.54-.99,1.54Z"></path>
  <path class="cls-4" d="M348.49,86.42c-.34-.41-.33-1,.01-1.4l12.1-14.03c.61-.7.11-1.8-.82-1.8h-6.35c-.32,0-.63.14-.83.39l-8.2,9.78c-.44.52-1.25.52-1.68-.01l-7.89-9.75c-.21-.26-.52-.4-.85-.4h-6.35c-.92,0-1.42,1.07-.84,1.78l11.65,14.11c.33.4.33.99,0,1.39l-12.2,14.67c-.59.71-.09,1.78.84,1.78h6.35c.33,0,.64-.15.85-.4l8.26-10.24c.44-.55,1.28-.54,1.71.02l7.83,10.19c.21.27.52.43.86.43h6.92c.92,0,1.43-1.07.84-1.78l-12.2-14.72Z"></path>
  <path class="cls-4" d="M425.02,69.19h-5.62c-.6,0-1.09.49-1.09,1.09v11.56c0,.6-.49,1.09-1.09,1.09h-19.35c-.6,0-1.09-.49-1.09-1.09v-11.56c0-.6-.49-1.09-1.09-1.09h-5.56c-.6,0-1.09.49-1.09,1.09v31.56c0,.6.49,1.09,1.09,1.09h5.56c.6,0,1.09-.49,1.09-1.09v-11.56c0-.6.49-1.09,1.09-1.09h19.35c.6,0,1.09.49,1.09,1.09v11.56c0,.6.49,1.09,1.09,1.09h5.62c.6,0,1.09-.49,1.09-1.09v-31.56c0-.6-.49-1.09-1.09-1.09Z"></path>
  <path class="cls-4" d="M463.13,96.7h-21.39c-.6,0-1.09-.49-1.09-1.09v-5.34c0-.6.49-1.09,1.09-1.09h17.05c.6,0,1.09-.49,1.09-1.09v-3.94c0-.6-.49-1.09-1.09-1.09h-17.05c-.6,0-1.09-.49-1.09-1.09v-5.49c0-.6.49-1.09,1.09-1.09h21.34c.6,0,1.09-.49,1.09-1.09v-4.04c0-.6-.49-1.09-1.09-1.09h-29.08c-.6,0-1.09.49-1.09,1.09v31.56c0,.6.49,1.09,1.09,1.09h29.13c.6,0,1.09-.49,1.09-1.09v-4.04c0-.6-.49-1.09-1.09-1.09Z"></path>
  <path class="cls-4" d="M490.32,69.81c-.18-.38-.56-.62-.98-.62h-5.93c-.42,0-.8.24-.98.62l-14.87,31.56c-.34.72.19,1.55.98,1.55h5.91c.43,0,.81-.25.99-.64l3-6.59c.18-.39.56-.64.99-.64h13.92c.43,0,.81.25.99.64l3.01,6.6c.18.39.56.64.99.64h5.97c.8,0,1.33-.83.98-1.55l-14.98-31.56ZM489.52,88.83h-6.27c-.79,0-1.32-.82-.99-1.54l3.13-6.88c.39-.85,1.59-.85,1.98,0l3.14,6.88c.33.72-.2,1.54-.99,1.54Z"></path>
  <path class="cls-4" d="M537.49,96.7h-19.36c-.6,0-1.09-.49-1.09-1.09v-25.34c0-.6-.49-1.09-1.09-1.09h-5.56c-.6,0-1.09.49-1.09,1.09v31.56c0,.6.49,1.09,1.09,1.09h27.1c.6,0,1.09-.49,1.09-1.09v-4.04c0-.6-.49-1.09-1.09-1.09Z"></path>
  <path class="cls-4" d="M566.16,69.19h-32.23c-.6,0-1.09.49-1.09,1.09v4.04c0,.6.49,1.09,1.09,1.09h11.13c.6,0,1.09.49,1.09,1.09v25.34c0,.6.49,1.09,1.09,1.09h5.62c.6,0,1.09-.49,1.09-1.09v-25.34c0-.6.49-1.09,1.09-1.09h11.13c.6,0,1.09-.49,1.09-1.09v-4.04c0-.6-.49-1.09-1.09-1.09Z"></path>
  <path class="cls-4" d="M607.61,69.19h-5.62c-.6,0-1.09.49-1.09,1.09v11.56c0,.6-.49,1.09-1.09,1.09h-19.35c-.6,0-1.09-.49-1.09-1.09v-11.56c0-.6-.49-1.09-1.09-1.09h-5.56c-.6,0-1.09.49-1.09,1.09v31.56c0,.6.49,1.09,1.09,1.09h5.56c.6,0,1.09-.49,1.09-1.09v-11.56c0-.6.49-1.09,1.09-1.09h19.35c.6,0,1.09.49,1.09,1.09v11.56c0,.6.49,1.09,1.09,1.09h5.62c.6,0,1.09-.49,1.09-1.09v-31.56c0-.6-.49-1.09-1.09-1.09Z"></path>
  <path class="cls-4" d="M213.57,122.27l-5.23,12.28h2.18l1.21-2.94h5.88l1.22,2.94h2.18l-5.27-12.28h-2.16ZM212.46,129.84l2.2-5.36,2.22,5.36h-4.41Z"></path>
  <path class="cls-4" d="M237.29,124.09c-.53-.57-1.24-1.01-2.11-1.34-.88-.32-1.97-.48-3.29-.48h-5.52v12.28h5.52c1.25,0,2.31-.17,3.19-.5.88-.33,1.59-.79,2.13-1.36s.94-1.23,1.18-1.98.37-1.53.37-2.35-.11-1.58-.34-2.31c-.23-.73-.61-1.38-1.14-1.95ZM236.5,129.96c-.16.52-.42,1-.79,1.42-.37.42-.86.76-1.49,1-.63.25-1.41.37-2.36.37h-3.47v-8.7h3.47c.95,0,1.73.12,2.36.36s1.12.57,1.49.98c.37.41.63.87.79,1.38.16.51.24,1.04.24,1.58s-.08,1.08-.24,1.6Z"></path>
  <polygon class="cls-4" points="249.17 132.36 245.22 122.27 243 122.27 247.98 134.55 250.35 134.55 255.28 122.27 253.1 122.27 249.17 132.36"></polygon>
  <rect class="cls-4" x="260.84" y="122.27" width="2.03" height="12.28"></rect>
  <path class="cls-4" d="M277.86,128.69c-.39-.27-.84-.49-1.35-.66-.51-.17-1.04-.31-1.59-.43-.7-.16-1.28-.32-1.75-.46-.47-.14-.85-.28-1.12-.44-.27-.15-.47-.32-.59-.51-.12-.19-.18-.41-.18-.66,0-.61.25-1.04.76-1.31.51-.27,1.12-.4,1.84-.4.82,0,1.5.18,2.03.54.53.36.81.95.85,1.77h1.91c.02-1.25-.37-2.25-1.18-2.99-.81-.74-1.98-1.11-3.53-1.11-1.01,0-1.87.15-2.58.45-.71.3-1.24.72-1.6,1.24-.36.52-.54,1.11-.54,1.75,0,.58.13,1.08.4,1.5s.63.77,1.09,1.06c.46.29.97.53,1.54.73.56.2,1.14.36,1.73.48.69.14,1.27.28,1.73.44.46.15.81.33,1.03.55.23.21.34.51.34.89s-.1.71-.29.99c-.2.28-.5.49-.9.64-.4.15-.91.23-1.52.23-.68,0-1.29-.11-1.81-.32-.52-.21-.94-.52-1.26-.9-.32-.39-.49-.82-.53-1.3h-1.97c-.04.27,0,.58.09.95.1.37.28.74.53,1.13.25.39.6.75,1.03,1.09.44.34.97.62,1.61.82.64.21,1.39.31,2.25.31,1.11,0,2.02-.16,2.72-.46.7-.31,1.22-.73,1.55-1.26.33-.53.5-1.13.5-1.8,0-.62-.11-1.13-.34-1.54-.23-.41-.54-.75-.93-1.02Z"></path>
  <path class="cls-4" d="M294.86,122.81c-1.03-.51-2.24-.77-3.63-.77s-2.58.26-3.62.77-1.84,1.24-2.42,2.2c-.57.95-.86,2.09-.86,3.4s.29,2.44.86,3.39c.57.95,1.38,1.68,2.42,2.2,1.04.52,2.24.78,3.62.78s2.6-.26,3.63-.78c1.03-.52,1.84-1.25,2.42-2.2.58-.95.87-2.08.87-3.39s-.29-2.45-.87-3.4c-.58-.95-1.39-1.69-2.42-2.2ZM295.44,130.94c-.42.68-.99,1.18-1.72,1.52-.73.33-1.56.5-2.49.5s-1.75-.17-2.48-.5c-.73-.33-1.31-.84-1.73-1.52-.42-.68-.64-1.52-.64-2.53s.21-1.85.64-2.52c.42-.67,1-1.18,1.73-1.53s1.56-.52,2.48-.52,1.77.17,2.49.52,1.3.86,1.72,1.53c.42.67.63,1.51.63,2.52s-.21,1.85-.63,2.53Z"></path>
  <path class="cls-4" d="M314.38,128.27c.33-.26.59-.58.78-.98.18-.39.27-.86.27-1.42,0-.82-.18-1.5-.53-2.03-.35-.53-.86-.93-1.52-1.18-.66-.26-1.43-.39-2.33-.39h-6.9v12.28h2.03v-4.78h4.15c.75,0,1.32.05,1.73.16.41.11.7.3.87.57.17.27.26.65.26,1.15v2.9h2.01v-2.99c0-.71-.14-1.24-.41-1.59-.27-.35-.67-.6-1.19-.74-.35-.09-.78-.15-1.24-.18.3-.05.59-.1.86-.19.44-.13.82-.33,1.16-.59ZM311.05,128.07h-4.87v-4.02h4.87c.78,0,1.37.16,1.77.49.4.33.6.8.6,1.4,0,.64-.2,1.16-.6,1.54-.4.39-.99.58-1.77.58Z"></path>
  <polygon class="cls-4" points="325.94 128.56 322.33 122.27 320.01 122.27 324.88 130.52 324.88 134.55 326.91 134.55 326.91 130.52 331.78 122.27 329.47 122.27 325.94 128.56"></polygon>
  <g>
    <path class="cls-3" d="M60.79,139.47l8.13,8.13c19.53,19.53,51.18,19.53,70.71,0l8.13-8.13c-24.02-24.02-62.95-24.02-86.97,0Z"></path>
    <path class="cls-2" d="M97.58,42.47l-46.83,46.83c-11.08,11.08-11.08,29.05,0,40.14l18.45-18.45c25.02-24.92,28.38-41.66,28.38-68.52Z"></path>
    <path class="cls-1" d="M157.79,89.3l-46.83-46.83c0,26.86,3.37,43.61,28.38,68.52l18.45,18.45c11.08-11.08,11.08-29.05,0-40.14Z"></path>
  </g>
</svg>
