<svg width="2984" height="569" viewBox="0 0 2984 569" fill="none" xmlns="http://www.w3.org/2000/svg">
<path d="M2879.22 405.448C2894.98 400.72 2904.33 394.807 2911.89 382.1C2930.98 394.771 2948.1 406.097 2967.25 418.808C2955.06 436.796 2922.17 460.084 2893.08 466.73C2872.72 471.383 2852.1 472.466 2831.38 470.279C2800.52 467.023 2772.9 456.003 2749.91 434.694C2731 417.178 2718.62 395.693 2712.32 370.782C2703.59 336.197 2705.51 302.284 2721.38 270.071C2741.85 228.545 2775.02 202.593 2820.71 194.18C2855.87 187.708 2889.45 193.393 2919.95 212.549C2951.87 232.591 2971.15 261.762 2979.35 298.415C2985.95 327.947 2982.38 354.269 2982.38 354.269C2915.68 354.269 2847.72 354.269 2781.07 354.269C2781.23 355.428 2781.26 356.274 2781.47 357.072C2789.08 385.668 2812.1 405.252 2841.69 408.378C2854.29 409.709 2866.72 409.09 2879.22 405.448ZM2815.95 305.216C2847.81 305.216 2879.66 305.216 2911.55 305.216C2911.06 300.002 2908.68 292.19 2905.5 285.416C2898.75 270.993 2888.54 259.977 2873.71 253.662C2863.19 249.182 2852.16 247.899 2840.82 248.819C2815.19 250.899 2796.71 263.413 2785.73 286.723C2783 292.517 2781 298.592 2779.89 305.216C2791.86 305.216 2803.54 305.216 2815.95 305.216Z" fill="#020E33"/>
<path d="M2592.43 98.0784H2617.65V72.8661H2642.86V98.0784H2668.07V467.677H2642.86V493.437H2617.65V467.677H2592.43C2592.43 344.482 2593.14 221.271 2592.43 98.0784Z" fill="#020E33"/>
<path d="M2506.59 226.895C2526.99 247.129 2538.9 271.631 2544.39 299.539C2547.6 315.889 2548.33 332.4 2546.52 348.956C2542.48 385.715 2528.03 417.211 2499.95 441.495C2481.79 457.198 2460.66 466.47 2437.06 469.944C2418.18 472.726 2399.5 471.99 2381.15 466.279C2364.89 461.219 2350.77 452.568 2338.82 440.287C2338.01 439.45 2337.47 438.336 2336.8 437.351C2336.49 437.566 2336.18 437.781 2335.87 437.996C2335.87 446.807 2335.87 455.618 2335.87 464.643C2312.96 464.643 2290.35 464.643 2267.6 464.643C2267.6 341.47 2267.6 218.423 2267.6 95.155C2292.03 95.155 2316.45 95.155 2341.24 95.155C2341.24 136.973 2341.24 178.753 2341.24 221.155C2342.21 220.426 2342.67 220.129 2343.07 219.765C2359.29 205.038 2378.32 196.536 2399.79 193.495C2423.32 190.162 2446.21 192.64 2468.31 201.648C2482.61 207.477 2495.3 215.866 2506.59 226.895ZM2413.32 258.151C2407.69 258.3 2402 257.942 2396.45 258.687C2372.73 261.867 2355.3 274.358 2345.51 296.55C2335.8 318.56 2335.71 341.204 2344.09 363.707C2349.59 378.483 2359.39 389.731 2373.19 397.21C2383.11 402.593 2393.83 405.086 2405.03 405.136C2431.69 405.256 2452.2 393.941 2464.94 370.018C2475.68 349.874 2476.64 328.398 2470.35 306.619C2465.71 290.522 2456.52 277.593 2442.58 268.348C2433.88 262.583 2424.26 259.412 2413.32 258.151Z" fill="#020E33"/>
<path d="M1464.09 460.207C1443.77 470.349 1422.5 472.915 1400.47 470.855C1380.56 468.993 1362 462.947 1345.05 452.169C1319.5 435.92 1301.89 413.053 1292.02 384.274C1279.81 348.639 1279.48 312.714 1292.94 277.422C1308.73 236.002 1338.81 210.544 1381.19 200.267C1401.99 195.224 1423 194.997 1443.93 200.044C1462.59 204.543 1478.75 213.546 1492.09 227.619C1492.67 228.232 1493.26 228.843 1493.85 229.445C1493.92 229.512 1494.05 229.511 1494.54 229.662C1494.54 219.19 1494.54 208.827 1494.54 198.257C1517.43 198.257 1539.93 198.257 1562.45 198.257C1563.16 200.693 1563.4 459.285 1562.66 464.753C1540.17 464.753 1517.65 464.753 1494.68 464.753C1494.68 455.385 1494.68 446.002 1494.68 436.619C1485.61 446.228 1475.76 454.194 1464.09 460.207ZM1490.34 350.446C1492.98 337.631 1492.95 324.789 1490.15 312.042C1485.8 292.233 1475.79 276.316 1458.01 266.264C1444.58 258.672 1430.04 256.442 1414.89 258.54C1392.79 261.601 1376.16 273.184 1365.81 293.096C1354 315.797 1353.37 339.524 1362.5 363.321C1368.66 379.382 1379.65 391.305 1395.05 398.763C1407.05 404.575 1419.81 406.176 1432.92 404.734C1448.85 402.981 1462.66 396.581 1473.67 384.539C1482.37 375.02 1487.56 363.667 1490.34 350.446Z" fill="#020E33"/>
<path d="M1693.7 463.785C1654.34 448.7 1628.94 420.449 1615.61 380.718C1608.4 359.188 1606.76 336.971 1608.97 314.418C1611.08 292.823 1617.1 272.445 1628.2 253.823C1648.04 220.531 1676.99 200.383 1714.81 193.959C1738.71 189.901 1762.21 191.903 1784.73 201.702C1794.51 205.958 1803.39 211.682 1811.41 218.773C1812.2 219.467 1813.01 220.126 1814.32 221.227C1814.32 178.867 1814.32 137.098 1814.32 95.1552C1839.03 95.1552 1863.36 95.1552 1887.95 95.1552C1887.95 218.231 1887.95 341.35 1887.95 464.679C1865.38 464.679 1842.76 464.679 1819.87 464.679C1819.87 455.937 1819.87 447.336 1819.87 438.137C1818.92 438.875 1818.37 439.211 1817.94 439.659C1799.97 458.03 1778.11 468.047 1752.86 470.734C1732.74 472.875 1713.09 470.622 1693.7 463.785ZM1713.92 395.422C1726.57 403.198 1740.35 406.151 1754.98 404.945C1782.27 402.695 1801.57 388.971 1811.79 363.051C1818.2 346.791 1818.84 329.905 1815.41 312.832C1812.45 298.135 1806.03 285.275 1795.05 275.064C1782.01 262.954 1766.35 257.645 1748.87 258.025C1720.75 258.636 1700.46 271.995 1688.49 297.753C1681.27 313.296 1679.89 329.845 1682.72 346.638C1686.18 367.125 1695.92 383.734 1713.92 395.422Z" fill="#020E33"/>
<path d="M2213.52 411.397C2213.52 429.302 2213.52 446.842 2213.52 464.629C2190.79 464.629 2168.14 464.629 2145.1 464.629C2145.1 455.327 2145.1 446.025 2145.1 436.141C2144.06 437.053 2143.49 437.462 2143.03 437.975C2126.89 455.997 2106.82 466.6 2083.13 470.005C2052.09 474.466 2022.79 469.147 1995.89 452.528C1969.28 436.086 1951.6 412.259 1941.42 382.611C1934.09 361.249 1931.99 339.22 1933.96 316.733C1935.4 300.222 1939.24 284.344 1946.24 269.343C1962.04 235.518 1987.78 213.187 2023.06 202.498C2047.47 195.103 2072.24 194.239 2097.05 200.791C2114.53 205.409 2129.66 214.208 2142.26 227.389C2142.99 228.15 2143.77 228.857 2144.99 230.034C2144.99 219.149 2144.99 208.848 2144.99 198.305C2167.94 198.305 2190.57 198.305 2213.52 198.305C2213.52 269.295 2213.52 340.163 2213.52 411.397ZM2049.99 262.317C2030.73 270.114 2017.98 284.242 2011.24 303.914C2005.11 321.837 2005.02 340.027 2010.72 358.057C2016.14 375.202 2026.49 388.556 2042.27 397.183C2056.2 404.8 2071.15 406.718 2086.63 404.176C2111.07 400.162 2128.11 386.357 2137.03 363.011C2144.82 342.61 2144.59 321.816 2137.4 301.23C2133.18 289.152 2126.19 278.814 2115.87 271.27C2095.76 256.557 2073.78 254.348 2049.99 262.317Z" fill="#020E33"/>
<path d="M1261.3 262.653C1255.29 263.15 1252.99 263.152 1247.33 263.871C1235.37 265.392 1224 268.791 1213.96 275.716C1201.63 284.221 1194.66 296.035 1192.92 310.887C1192.51 314.382 1192.35 317.925 1192.34 321.446C1192.31 368.085 1192.32 414.723 1192.32 461.361C1192.32 462.676 1192.32 463.99 1192.32 465.473C1167.28 465.473 1142.52 465.473 1117.69 465.473C1117.69 376.594 1117.69 293.973 1117.69 205.118C1141.22 205.118 1164.56 205.118 1188.36 205.118C1188.36 213.35 1188.36 215.441 1188.36 224.484C1209.53 205.272 1231.56 194.563 1261.27 192.514L1261.3 262.653Z" fill="#020E33"/>
<path d="M992.26 113.79C1030.12 113.79 1067.6 113.79 1105.31 113.79C1105.31 136.071 1105.31 158.147 1105.31 180.472C1070.9 180.472 1036.6 180.472 1001.94 180.472C1001.94 275.497 1001.94 370.275 1001.94 465.299C976.681 465.299 951.782 465.299 926.537 465.299C926.537 370.657 926.537 275.87 926.537 180.536C891.81 180.535 857.425 180.536 822.818 180.535C822.818 158.287 822.818 136.209 822.818 113.79C879.213 113.79 935.554 113.79 992.26 113.79Z" fill="#020E33"/>
<path fill-rule="evenodd" clip-rule="evenodd" d="M484.63 7.34973C390.365 -47.0673 0 216.203 0 287.14C0 312.714 64.6491 309.584 139.516 317.402C145.397 258.62 157.496 209.62 172.276 201.059C194.902 188.005 304.662 164.046 372.09 202.153C443.94 242.759 472.952 346.835 472.952 374.668C472.952 391.75 436.473 426.797 388.428 461.325C433.006 523.266 460.657 580.77 484.63 566.917C546.107 531.406 578.895 61.7667 484.63 7.34973Z" fill="url(#paint0_linear_7_173)"/>
<path fill-rule="evenodd" clip-rule="evenodd" d="M282.793 356.969C240.573 332.069 187.911 322.455 139.529 317.402C130.237 410.291 136.483 527.589 172.289 548.264C208.066 568.924 312.661 515.771 388.441 461.325C360.79 422.923 326.641 382.823 282.793 356.969Z" fill="url(#paint1_linear_7_173)"/>
<defs>
<linearGradient id="paint0_linear_7_173" x1="488.251" y1="4.48642" x2="165.426" y2="565.219" gradientUnits="userSpaceOnUse">
<stop stop-color="#01A8FF"/>
<stop offset="1" stop-color="#C31AED"/>
</linearGradient>
<linearGradient id="paint1_linear_7_173" x1="362.677" y1="319.258" x2="237.32" y2="563.931" gradientUnits="userSpaceOnUse">
<stop stop-color="#01A8FF"/>
<stop offset="1" stop-color="#C31AED"/>
</linearGradient>
</defs>
</svg>
